<svg width="1348" height="248" viewBox="0 0 1348 248" fill="none" xmlns="http://www.w3.org/2000/svg">
<path d="M148.983 91.9886C148.023 88.0739 146.509 84.6392 144.44 81.6847C142.372 78.6563 139.787 76.108 136.685 74.0398C133.656 71.8977 130.111 70.3097 126.048 69.2756C122.06 68.1676 117.665 67.6136 112.864 67.6136C102.523 67.6136 93.696 70.0881 86.3835 75.0369C79.1449 79.9858 73.6051 87.1136 69.7642 96.4205C65.9972 105.727 64.1136 116.955 64.1136 130.102C64.1136 143.398 65.9233 154.773 69.5426 164.227C73.1619 173.682 78.554 180.92 85.7188 185.943C92.8835 190.966 101.784 193.477 112.42 193.477C121.801 193.477 129.594 192.111 135.798 189.378C142.077 186.645 146.767 182.767 149.869 177.744C152.972 172.722 154.523 166.812 154.523 160.017L165.159 161.125H113.307V117.25H213.909V148.716C213.909 169.398 209.514 187.088 200.724 201.787C192.009 216.412 179.969 227.639 164.605 235.469C149.315 243.224 131.773 247.102 111.977 247.102C89.892 247.102 70.5028 242.412 53.8097 233.031C37.1165 223.651 24.0795 210.281 14.6989 192.923C5.39205 175.565 0.738637 154.92 0.738637 130.989C0.738637 112.227 3.58239 95.608 9.26989 81.1307C15.0313 66.6534 23.0085 54.429 33.2017 44.4574C43.3949 34.4119 55.1761 26.8409 68.5455 21.7443C81.9148 16.5739 96.2443 13.9886 111.534 13.9886C124.977 13.9886 137.46 15.9091 148.983 19.75C160.58 23.517 170.81 28.9091 179.673 35.9261C188.611 42.8693 195.813 51.1051 201.278 60.6335C206.744 70.1619 210.068 80.6136 211.25 91.9886H148.983ZM251.063 244V73.8182H312.222V244H251.063ZM281.643 56.0909C273.37 56.0909 266.279 53.358 260.37 47.892C254.461 42.4261 251.506 35.8523 251.506 28.1705C251.506 20.4886 254.461 13.9148 260.37 8.44885C266.279 2.98295 273.37 0.25 281.643 0.25C289.989 0.25 297.08 2.98295 302.916 8.44885C308.825 13.9148 311.779 20.4886 311.779 28.1705C311.779 35.8523 308.825 42.4261 302.916 47.892C297.08 53.358 289.989 56.0909 281.643 56.0909ZM511.775 73.8182L454.604 244H383.695L326.525 73.8182H390.786L418.264 186.386H420.036L447.514 73.8182H511.775ZM602.416 247.102C584.245 247.102 568.586 243.631 555.438 236.688C542.364 229.67 532.282 219.625 525.191 206.551C518.174 193.403 514.666 177.67 514.666 159.352C514.666 141.773 518.211 126.409 525.302 113.261C532.393 100.114 542.401 89.8835 555.328 82.571C568.254 75.2585 583.506 71.6023 601.086 71.6023C613.938 71.6023 625.572 73.5966 635.987 77.5852C646.401 81.5739 655.302 87.3722 662.688 94.9801C670.075 102.514 675.762 111.673 679.751 122.457C683.739 133.241 685.734 145.392 685.734 158.909V173.091H533.722V139.409H629.45C629.376 134.534 628.12 130.25 625.683 126.557C623.319 122.79 620.106 119.872 616.043 117.804C612.055 115.662 607.512 114.591 602.416 114.591C597.467 114.591 592.924 115.662 588.788 117.804C584.651 119.872 581.328 122.753 578.816 126.446C576.379 130.139 575.086 134.46 574.938 139.409V175.75C574.938 181.216 576.083 186.091 578.373 190.375C580.663 194.659 583.95 198.02 588.234 200.457C592.518 202.895 597.688 204.114 603.745 204.114C607.955 204.114 611.796 203.523 615.268 202.341C618.813 201.159 621.842 199.46 624.353 197.244C626.864 194.955 628.711 192.222 629.893 189.045H685.734C683.813 200.864 679.271 211.131 672.106 219.847C664.941 228.489 655.45 235.21 643.631 240.011C631.887 244.739 618.149 247.102 602.416 247.102ZM748.454 244L681.534 17.0909H750.227L781.249 156.693H783.022L819.806 17.0909H873.874L910.659 157.136H912.431L943.454 17.0909H1012.15L945.227 244H886.284L847.727 117.25H845.954L807.397 244H748.454ZM1091.6 247.102C1073.43 247.102 1057.77 243.631 1044.62 236.688C1031.55 229.67 1021.46 219.625 1014.37 206.551C1007.36 193.403 1003.85 177.67 1003.85 159.352C1003.85 141.773 1007.39 126.409 1014.48 113.261C1021.57 100.114 1031.58 89.8835 1044.51 82.571C1057.44 75.2585 1072.69 71.6023 1090.27 71.6023C1103.12 71.6023 1114.75 73.5966 1125.17 77.5852C1135.58 81.5739 1144.48 87.3722 1151.87 94.9801C1159.26 102.514 1164.94 111.673 1168.93 122.457C1172.92 133.241 1174.92 145.392 1174.92 158.909V173.091H1022.9V139.409H1118.63C1118.56 134.534 1117.3 130.25 1114.86 126.557C1112.5 122.79 1109.29 119.872 1105.23 117.804C1101.24 115.662 1096.69 114.591 1091.6 114.591C1086.65 114.591 1082.11 115.662 1077.97 117.804C1073.83 119.872 1070.51 122.753 1068 126.446C1065.56 130.139 1064.27 134.46 1064.12 139.409V175.75C1064.12 181.216 1065.27 186.091 1067.55 190.375C1069.84 194.659 1073.13 198.02 1077.42 200.457C1081.7 202.895 1086.87 204.114 1092.93 204.114C1097.14 204.114 1100.98 203.523 1104.45 202.341C1108 201.159 1111.02 199.46 1113.53 197.244C1116.05 194.955 1117.89 192.222 1119.07 189.045H1174.92C1173 200.864 1168.45 211.131 1161.29 219.847C1154.12 228.489 1144.63 235.21 1132.81 240.011C1121.07 244.739 1107.33 247.102 1091.6 247.102ZM1257.91 17.0909V244H1196.75V17.0909H1257.91ZM1347.11 17.0909V244H1285.95V17.0909H1347.11Z" fill="#FEFDFB"/>
</svg>
